<svg width="24" height="24" viewBox="0 0 24 24" fill="none" xmlns="http://www.w3.org/2000/svg">
<path fill-rule="evenodd" clip-rule="evenodd" d="M16 7C16 9.20914 14.2091 11 12 11C9.79086 11 8 9.20914 8 7C8 4.79086 9.79086 3 12 3C14.2091 3 16 4.79086 16 7ZM14 7C14 8.10457 13.1046 9 12 9C10.8954 9 10 8.10457 10 7C10 5.89543 10.8954 5 12 5C13.1046 5 14 5.89543 14 7Z" fill="#818181"/>
<path d="M17 15C17 14.4477 16.5523 14 16 14H8C7.44772 14 7 14.4477 7 15V21H5V15C5 13.3431 6.34315 12 8 12H16C17.6569 12 19 13.3431 19 15V21H17V15Z" fill="#818181"/>
</svg>
